<?xml version="1.0" encoding="UTF-8" standalone="no"?>
<!-- Created with Inkscape (http://www.inkscape.org/) -->

<svg
   sodipodi:docname="sloflix.svg"
   inkscape:version="1.2.2 (732a01da63, 2022-12-09, custom)"
   id="svg8"
   version="1.1"
   viewBox="0 0 71.842193 17.073916"
   height="17.073915mm"
   width="71.842194mm"
   xmlns:inkscape="http://www.inkscape.org/namespaces/inkscape"
   xmlns:sodipodi="http://sodipodi.sourceforge.net/DTD/sodipodi-0.dtd"
   xmlns="http://www.w3.org/2000/svg"
   xmlns:svg="http://www.w3.org/2000/svg"
   xmlns:rdf="http://www.w3.org/1999/02/22-rdf-syntax-ns#"
   xmlns:cc="http://creativecommons.org/ns#"
   xmlns:dc="http://purl.org/dc/elements/1.1/">
  <defs
     id="defs2">
    <inkscape:path-effect
       effect="lattice2"
       gridpoint0="61.207859,51.022767"
       gridpoint1="133.05005,51.022767"
       gridpoint2="61.207859,68.039777"
       gridpoint3="133.05005,68.3225"
       gridpoint4="79.168407,51.022767"
       gridpoint5="115.0895,51.022767"
       gridpoint6="79.168407,64.65523"
       gridpoint7="115.0895,64.65523"
       gridpoint8x9="97.128955,51.022767"
       gridpoint10x11="97.128955,61.451438"
       gridpoint12="61.207859,54.430883"
       gridpoint13="133.05005,54.430883"
       gridpoint14="61.207859,61.247114"
       gridpoint15="133.05005,61.247114"
       gridpoint16="79.168407,54.430883"
       gridpoint17="115.0895,54.430883"
       gridpoint18="79.168407,61.247114"
       gridpoint19="115.0895,61.247114"
       gridpoint20x21="97.128955,54.430883"
       gridpoint22x23="97.128955,61.247114"
       gridpoint24x26="61.207859,57.838999"
       gridpoint25x27="133.05005,57.838999"
       gridpoint28x30="79.168407,57.838999"
       gridpoint29x31="115.0895,57.838999"
       gridpoint32x33x34x35="97.128955,57.838999"
       id="path-effect3215"
       is_visible="true"
       lpeversion="1"
       horizontal_mirror="false"
       vertical_mirror="false"
       perimetral="false"
       live_update="true" />
    <inkscape:path-effect
       effect="lattice2"
       gridpoint0="73.795951,49.441764"
       gridpoint1="139.92677,49.441764"
       gridpoint2="73.735584,64.916739"
       gridpoint3="139.92404,65.765523"
       gridpoint4="90.328656,49.441764"
       gridpoint5="123.39407,49.441764"
       gridpoint6="90.328656,62.198496"
       gridpoint7="123.5202,62.077711"
       gridpoint8x9="106.86136,49.441764"
       gridpoint10x11="106.73083,61.158145"
       gridpoint12="73.795951,52.863245"
       gridpoint13="139.92677,52.863245"
       gridpoint14="73.795951,59.706208"
       gridpoint15="139.92677,59.706208"
       gridpoint16="90.328656,52.863245"
       gridpoint17="123.39407,52.863245"
       gridpoint18="90.328656,59.706208"
       gridpoint19="123.39407,59.706208"
       gridpoint20x21="106.86136,52.863245"
       gridpoint22x23="106.86136,59.706208"
       gridpoint24x26="73.795951,56.284726"
       gridpoint25x27="139.92677,56.284726"
       gridpoint28x30="90.328656,56.284726"
       gridpoint29x31="123.39407,56.284726"
       gridpoint32x33x34x35="106.86136,56.284726"
       id="path-effect3194"
       is_visible="true"
       lpeversion="1"
       horizontal_mirror="false"
       vertical_mirror="false"
       perimetral="false"
       live_update="true" />
  </defs>
  <sodipodi:namedview
     id="base"
     pagecolor="#ffffff"
     bordercolor="#666666"
     borderopacity="1.0"
     inkscape:pageopacity="0.0"
     inkscape:pageshadow="2"
     inkscape:zoom="0.9899495"
     inkscape:cx="208.5965"
     inkscape:cy="109.09647"
     inkscape:document-units="mm"
     inkscape:current-layer="layer1"
     showgrid="false"
     inkscape:window-width="1862"
     inkscape:window-height="1043"
     inkscape:window-x="58"
     inkscape:window-y="0"
     inkscape:window-maximized="1"
     fit-margin-top="0"
     fit-margin-left="0"
     fit-margin-right="0"
     fit-margin-bottom="0"
     inkscape:showpageshadow="2"
     inkscape:pagecheckerboard="0"
     inkscape:deskcolor="#d1d1d1"
     showguides="true" />
  <metadata
     id="metadata5">
    <rdf:RDF>
      <cc:Work
         rdf:about="">
        <dc:format>image/svg+xml</dc:format>
        <dc:type
           rdf:resource="http://purl.org/dc/dcmitype/StillImage" />
      </cc:Work>
    </rdf:RDF>
  </metadata>
  <g
     inkscape:label="Layer 1"
     inkscape:groupmode="layer"
     id="layer1"
     transform="translate(-34.024,-37.0011)">
    <g
       aria-label="SLOFLIX"
       id="text3198"
       style="font-size:18.2479px;line-height:1.25;font-family:'Inter Tight';-inkscape-font-specification:'Inter Tight, @wght=800';font-variation-settings:'wght' 800;letter-spacing:0px;word-spacing:0px;fill:#fe0000;fill-opacity:1;stroke-width:0.264583"
       inkscape:path-effect="#path-effect3215"
       transform="translate(-27.183859,-14.021667)">
      <path
         d="m 66.749945,67.801786 c -1.112003,0.09116 -2.077816,-0.0562 -2.904695,-0.436613 -0.82555,-0.38719 -1.470286,-1.010724 -1.933493,-1.851892 -0.457385,-0.848847 -0.692018,-1.922364 -0.703898,-3.212574 1.032107,0.01518 3.065077,-0.04868 3.065077,-0.04868 0.0297,0.523166 0.145534,0.962316 0.347494,1.315526 0.207901,0.345599 0.487086,0.602112 0.83755,0.767661 0.356509,0.165287 0.772104,0.232616 1.247415,0.201433 0.433464,-0.02844 0.80207,-0.128268 1.104853,-0.295973 0.308811,-0.168194 0.546558,-0.386061 0.712808,-0.651941 0.166322,-0.265996 0.249483,-0.564905 0.249483,-0.897464 0,-0.303642 -0.07722,-0.554759 -0.231662,-0.754552 -0.154453,-0.207047 -0.389064,-0.380624 -0.703899,-0.522216 -0.309037,-0.149278 -0.706714,-0.276682 -1.193954,-0.384937 -0.455791,-0.09728 -1.398887,-0.337154 -1.398887,-0.337154 -1.140628,-0.282536 -2.040279,-0.795691 -2.699762,-1.522716 -0.659348,-0.734286 -0.989022,-1.740456 -0.989022,-3.008403 0,-1.023256 0.222753,-1.920633 0.668258,-2.69249 0.445494,-0.771839 1.057344,-1.373526 1.835482,-1.803342 0.784807,-0.430226 1.680322,-0.642692 2.690852,-0.642692 1.027429,0 1.921817,0.21565 2.681942,0.637147 0.760046,0.414257 1.34868,0.99567 1.764201,1.741788 0.415805,0.739516 0.629648,1.595842 0.641528,2.579248 -1.018009,0.05005 -3.082897,0.106676 -3.082897,0.106676 -0.03563,-0.577147 -0.225733,-1.020395 -0.570247,-1.332125 -0.338463,-0.31901 -0.819851,-0.474466 -1.443437,-0.464521 -0.415894,0.0066 -0.76321,0.07745 -1.042482,0.213705 -0.273262,0.136142 -0.481127,0.322911 -0.623708,0.560653 -0.136621,0.237623 -0.204932,0.503996 -0.204932,0.79875 0,0.324228 0.07722,0.599284 0.231662,0.824358 0.154437,0.225066 0.377199,0.411393 0.668258,0.558067 0.29702,0.14653 0.644482,0.2685 1.042483,0.365211 0.387589,0.105812 1.131583,0.276568 1.131583,0.276568 0.653407,0.148915 1.232566,0.354345 1.737471,0.61677 0.504859,0.2624 0.929668,0.578556 1.274145,0.94938 0.350438,0.370485 0.614824,0.803276 0.793,1.300118 0.178202,0.496915 0.267303,1.058271 0.267303,1.687368 0,1.003727 -0.210872,1.885461 -0.632617,2.653724 -0.415218,0.75947 -1.01634,1.380484 -1.799842,1.850787 -0.782586,0.469753 -1.730064,0.76489 -2.833414,0.855347 z"
         style="font-size:18.2479px;fill:#fe0000;fill-opacity:1"
         id="path3200"
         inkscape:original-d="m 66.749945,64.65523 q -1.66619,0 -2.904695,-0.498966 -1.238504,-0.507876 -1.933493,-1.523628 -0.686078,-1.024662 -0.703898,-2.575021 h 3.065077 q 0.04455,0.632618 0.347494,1.069213 0.311853,0.427685 0.83755,0.650438 0.534606,0.222752 1.247415,0.222752 0.650437,0 1.104853,-0.178202 0.463325,-0.178202 0.712808,-0.490056 0.249483,-0.311853 0.249483,-0.721718 0,-0.374225 -0.231662,-0.632618 -0.231663,-0.267303 -0.703899,-0.463325 -0.463325,-0.204933 -1.193954,-0.365315 L 65.244137,58.82802 q -1.71074,-0.392044 -2.699762,-1.274145 -0.989022,-0.891011 -0.989022,-2.414639 0,-1.229594 0.668258,-2.156245 0.668258,-0.926652 1.835482,-1.443438 1.176134,-0.516786 2.690852,-0.516786 1.541449,0 2.681942,0.525696 1.140494,0.516787 1.764201,1.461258 0.623708,0.935561 0.641528,2.174066 h -3.082897 q -0.05346,-0.712809 -0.570247,-1.104853 -0.507876,-0.400955 -1.443437,-0.400955 -0.623707,0 -1.042482,0.160382 -0.409865,0.160382 -0.623708,0.445505 -0.204932,0.285123 -0.204932,0.641528 0,0.392044 0.231662,0.668258 0.231663,0.276213 0.668258,0.463325 0.445506,0.187112 1.042483,0.320764 l 1.131583,0.258393 q 0.980112,0.213843 1.737471,0.570247 0.757359,0.356404 1.274145,0.84646 0.525697,0.490056 0.793,1.131584 0.267303,0.641527 0.267303,1.434527 0,1.265235 -0.632617,2.174066 -0.623708,0.899921 -1.799842,1.381066 -1.176134,0.481146 -2.833414,0.481146 z" />
      <path
         d="m 73.129581,66.89451 c 0.01,-5.210239 0,-15.661521 0,-15.661521 1.076454,0.01 3.198728,-0.0055 3.198728,-0.0055 0.01,4.095795 0,12.25248 0,12.25248 1.854761,-0.18529 5.533176,-0.567613 5.533176,-0.567613 0.01,0.964217 0,2.862488 0,2.862488 -2.910635,0.345586 -5.821269,0.751908 -8.731904,1.119668 z"
         style="font-size:18.2479px;fill:#fe0000;fill-opacity:1"
         id="path3202"
         inkscape:original-d="M 73.129581,64.477028 V 51.200969 h 3.198728 v 10.665398 h 5.533176 v 2.610661 z" />
      <path
         d="m 88.686628,65.28828 c -1.194303,0.08991 -2.271728,-0.08797 -3.234369,-0.561953 -0.957057,-0.474721 -1.713005,-1.227159 -2.272077,-2.275211 -0.552427,-1.053698 -0.82864,-2.384617 -0.82864,-3.974082 0,-1.595953 0.276213,-2.963352 0.82864,-4.079907 0.558834,-1.124095 1.315258,-1.964259 2.272077,-2.527991 0.962319,-0.569847 2.040388,-0.846369 3.234369,-0.846369 1.187011,0 2.2612,0.275959 3.216548,0.818346 0.956279,0.536786 1.713784,1.327103 2.272078,2.371955 0.558367,1.038894 0.83755,2.305782 0.83755,3.803055 0,1.491185 -0.279183,2.758643 -0.83755,3.811618 -0.558478,1.053185 -1.315615,1.866191 -2.272078,2.454067 -0.95522,0.580989 -2.029665,0.917123 -3.216548,1.006472 z m 0,-2.937018 c 0.635403,-0.03798 1.182259,-0.228152 1.63946,-0.569983 0.457373,-0.34196 0.807862,-0.822932 1.051392,-1.445346 0.243543,-0.622446 0.365315,-1.37673 0.365315,-2.266052 0,-0.895456 -0.121772,-1.647119 -0.365315,-2.25696 -0.243492,-0.615854 -0.594057,-1.081224 -1.051392,-1.395164 -0.457165,-0.313822 -1.004093,-0.46782 -1.63946,-0.457972 -0.635684,0.0099 -1.181977,0.181015 -1.63946,0.517044 -0.457468,0.336018 -0.810737,0.826837 -1.060302,1.473216 -0.243543,0.639655 -0.365315,1.42424 -0.365315,2.348788 0,0.918215 0.121772,1.687459 0.365315,2.3037 0.249605,0.616165 0.602794,1.070293 1.060302,1.36594 0.457585,0.295695 1.003674,0.420797 1.63946,0.382789 z"
         style="font-size:18.2479px;fill:#fe0000;fill-opacity:1"
         id="path3204"
         inkscape:original-d="m 88.686628,64.65523 q -1.790931,0 -3.234369,-0.792999 -1.434527,-0.793 -2.272077,-2.307718 -0.82864,-1.523628 -0.82864,-3.706604 0,-2.191887 0.82864,-3.715515 0.83755,-1.532538 2.272077,-2.316627 1.443438,-0.793 3.234369,-0.793 1.782021,0 3.216548,0.793 1.434528,0.784089 2.272078,2.316627 0.83755,1.523628 0.83755,3.715515 0,2.182976 -0.83755,3.706604 -0.83755,1.523628 -2.272078,2.316628 -1.434527,0.784089 -3.216548,0.784089 z m 0,-2.806684 q 0.953381,0 1.63946,-0.463325 0.686078,-0.463326 1.051392,-1.354336 0.365315,-0.891011 0.365315,-2.182976 0,-1.300876 -0.365315,-2.191887 -0.365314,-0.89992 -1.051392,-1.363246 -0.686079,-0.463325 -1.63946,-0.463325 -0.953381,0 -1.63946,0.463325 -0.686078,0.463326 -1.060302,1.363246 -0.365315,0.891011 -0.365315,2.191887 0,1.291965 0.365315,2.182976 0.374224,0.89101 1.060302,1.354336 0.686079,0.463325 1.63946,0.463325 z" />
      <path
         d="m 96.367139,64.794819 c 0.01,-4.520564 0,-13.589641 0,-13.589641 3.031127,0.01009 9.061581,0.0048 9.061581,0.0048 0.01,0.924917 0,2.742363 0,2.742363 -1.94467,-0.0221 -5.862852,-0.06681 -5.862852,-0.06681 0.01,1.147763 0,3.41151 0,3.41151 1.771582,0.03253 5.283692,0.125784 5.283692,0.125784 0.01,0.900496 0,2.668236 0,2.668236 -1.75158,-0.07529 -5.283692,-0.178224 -5.283692,-0.178224 0.01,1.651041 0,4.920623 0,4.920623 -1.067304,-0.02952 -2.131425,-0.04244 -3.198729,-0.03862 z"
         style="font-size:18.2479px;fill:#fe0000;fill-opacity:1"
         id="path3206"
         inkscape:original-d="M 96.367139,64.477028 V 51.200969 h 9.061581 v 2.610661 h -5.862852 v 3.32347 h 5.283692 v 2.548291 h -5.283692 v 4.793637 z" />
      <path
         d="m 106.52466,65.249279 c 0.01,-4.669379 0,-14.038082 0,-14.038082 1.07646,0.01185 3.19873,0.0043 3.19873,0.0043 0.01,3.857006 0,11.534553 0,11.534553 1.85476,0.178476 5.53317,0.562006 5.53317,0.562006 0.01,0.999034 0,2.958718 0,2.958718 -2.95009,-0.402149 -5.78181,-0.756929 -8.7319,-1.021489 z"
         style="font-size:18.2479px;fill:#fe0000;fill-opacity:1"
         id="path3208"
         inkscape:original-d="M 106.52466,64.477028 V 51.200969 h 3.19873 v 10.665398 h 5.53317 v 2.610661 z" />
      <path
         d="m 119.6047,51.232709 c 0.01,5.227244 0,15.640653 0,15.640653 -1.05661,-0.133967 -3.19873,-0.444594 -3.19873,-0.444594 0.01,-5.056348 0,-15.201948 0,-15.201948 1.32733,0.0024 1.8714,0.0035 3.19873,0.0059 z"
         style="font-size:18.2479px;fill:#fe0000;fill-opacity:1"
         id="path3210"
         inkscape:original-d="m 119.6047,51.200969 v 13.276059 h -3.19873 V 51.200969 Z" />
      <path
         d="m 124.35378,51.240875 c 0.81801,1.726001 2.42355,5.221249 2.42355,5.221249 0.0456,0.01387 0.10692,0.0033 0.10692,0.0033 0.81427,-1.688847 2.43246,-5.218372 2.43246,-5.218372 1.21014,0.01365 3.59969,0.0018 3.59969,0.0018 -1.32678,2.824702 -4.00955,8.351085 -4.00955,8.351085 1.39134,2.840612 4.1432,8.496377 4.1432,8.496377 -1.21984,0.008 -3.68879,-0.134358 -3.68879,-0.134358 -0.81584,-1.817343 -2.47701,-5.466347 -2.47701,-5.466347 -0.0256,0.01077 -0.10692,-0.007 -0.10692,-0.007 -0.83461,1.739193 -2.49483,4.992898 -2.49483,4.992898 -1.20424,-0.129819 -3.64423,-0.466691 -3.64423,-0.466691 1.37946,-2.428072 4.10756,-7.615455 4.10756,-7.615455 -1.32678,-2.784686 -4.00955,-8.164616 -4.00955,-8.164616 -0.3242,-5.81e-4 3.9417,0.0067 3.6175,0.0061 z"
         style="font-size:18.2479px;fill:#fe0000;fill-opacity:1"
         id="path3212"
         inkscape:original-d="m 124.35378,51.200969 2.42355,4.19666 h 0.10692 l 2.43246,-4.19666 h 3.59969 l -4.00955,6.64694 4.1432,6.629119 h -3.68879 l -2.47701,-4.232301 h -0.10692 l -2.49483,4.232301 h -3.64423 l 4.10756,-6.629119 -4.00955,-6.64694 z" />
    </g>
  </g>
</svg>
